<svg id="Layer_1" data-name="Layer 1" xmlns="http://www.w3.org/2000/svg" xmlns:xlink="http://www.w3.org/1999/xlink" viewBox="0 0 161.29 54.11"><defs><linearGradient id="linear-gradient" x1="80.14" y1="39.98" x2="32.56" y2="12.51" gradientTransform="matrix(1, 0, 0, -1, -7.26, 60.62)" gradientUnits="userSpaceOnUse"><stop offset="0" stop-color="#ae762a"/><stop offset="0.27" stop-color="#bc8d2d"/><stop offset="0.54" stop-color="#ead470"/><stop offset="0.78" stop-color="#bc8d2d"/><stop offset="1" stop-color="#aa792b"/></linearGradient></defs><title>header</title><path d="M176.4,43.19V26.8h4.17V43.19Zm-5.62-4.31v-.56h-.87c-1.69,0-2.53.44-2.53,1.33a.88.88,0,0,0,.38.76,1.47,1.47,0,0,0,1,.29,2.17,2.17,0,0,0,1.48-.52A1.69,1.69,0,0,0,170.78,38.88Zm0-2.92q0-1.65-2.46-1.65a11,11,0,0,0-2.86.53l-.79-2.53.89-.27a14.75,14.75,0,0,1,3.37-.43c3.84,0,5.76,1.65,5.76,5v6.61h-3.58V41.84c-.1.12-.2.23-.32.35a4.17,4.17,0,0,1-3.26,1.21,4.33,4.33,0,0,1-2.94-1.06,3.31,3.31,0,0,1-1.18-2.54A3.17,3.17,0,0,1,164.94,37a7.82,7.82,0,0,1,4.3-1Zm-14.29,7.23V26.8h4.17V43.19Zm-13.72,0V31.84h3.77v1.68A6.41,6.41,0,0,1,148.37,32a4.42,4.42,0,0,1,2-.44,4.26,4.26,0,0,1,3.24,1.24,4.78,4.78,0,0,1,1.17,3.43v6.92h-4.14V36.63a1.38,1.38,0,0,0-.46-1.09A1.56,1.56,0,0,0,149,35.1a2.23,2.23,0,0,0-1,.25,1.9,1.9,0,0,0-.76.7,2.23,2.23,0,0,0-.3.69,4.86,4.86,0,0,0-.08,1v5.44Zm-5.63-4.31v-.56h-.87c-1.68,0-2.52.44-2.52,1.33a.91.91,0,0,0,.37.76,1.47,1.47,0,0,0,1,.29,2.17,2.17,0,0,0,1.48-.52,1.65,1.65,0,0,0,.56-1.3Zm0-2.92q0-1.65-2.46-1.65a11.19,11.19,0,0,0-2.86.53L131,32.31l.89-.27a14.68,14.68,0,0,1,3.37-.43c3.83,0,5.75,1.65,5.76,5v6.61h-3.57V41.84c-.1.12-.2.23-.32.35a4.17,4.17,0,0,1-3.26,1.21A4.33,4.33,0,0,1,131,42.34a3.28,3.28,0,0,1-1.21-2.54A3.17,3.17,0,0,1,131.27,37a7.79,7.79,0,0,1,4.3-1Zm-20.69,7.23V26.8h4.14v6.33a4.66,4.66,0,0,1,3.48-1.58,4.27,4.27,0,0,1,3.16,1.2A4.39,4.39,0,0,1,128.42,36v7.21h-4.13V36.27a1.38,1.38,0,0,0-.53-.86,1.61,1.61,0,0,0-1.06-.33,2.15,2.15,0,0,0-1.69.78,2,2,0,0,0-.36.7,5.36,5.36,0,0,0-.06,1.13v5.5Zm-7.92-8.61a1.86,1.86,0,0,0-1.59.8,4.05,4.05,0,0,0,0,4.22,1.93,1.93,0,0,0,3.14,0,4,4,0,0,0,0-4.22,1.86,1.86,0,0,0-1.57-.82Zm-6.48,3a5.61,5.61,0,0,1,1.76-4.33,6.72,6.72,0,0,1,4.72-1.61,6.8,6.8,0,0,1,4.75,1.61,5.52,5.52,0,0,1,1.78,4.27,5.54,5.54,0,0,1-1.78,4.3,7.73,7.73,0,0,1-9.45,0,5.46,5.46,0,0,1-1.8-4.24ZM81.79,43.19V28.26h6.38l2.54,8A11.59,11.59,0,0,1,91,38a16.16,16.16,0,0,1,.18,2.4A19.05,19.05,0,0,1,91.36,38a12,12,0,0,1,.32-1.67l2.57-8h6.34V43.19H96.53l.06-9.35.15-1.19.1-.88.1-.63a9.56,9.56,0,0,1-.39,1.51l-.35,1.12-3,9.42h-4l-3-9.42-.37-1.12-.36-1.51.07.63.12.88.15,1.19v9.35Z" transform="translate(-19.36 -2.94)" fill="#aa792b"/><path d="M179.62,52.85a1.82,1.82,0,0,0-.53-1.32,1.73,1.73,0,0,0-1.31-.52,1.78,1.78,0,0,0-1.48.7,3.05,3.05,0,0,0-.53,1.9,2.77,2.77,0,0,0,.53,1.75,1.68,1.68,0,0,0,1.4.65,1.78,1.78,0,0,0,1.39-.62,2.28,2.28,0,0,0,.53-1.58Zm.95,3.8h-.95V55.57h0a2.56,2.56,0,0,1-3.51.87,2.65,2.65,0,0,1-.58-.48,3.48,3.48,0,0,1-.71-2.32,3.75,3.75,0,0,1,.79-2.51,2.56,2.56,0,0,1,2.11-.94,2.06,2.06,0,0,1,1.92,1.05h0v-4h.94Zm-7.09,0a1.84,1.84,0,0,1-.92.19c-1.09,0-1.64-.61-1.64-1.83V51.15h-1.09v-.82h1.09V48.78l1-.31v1.86h1.59v.82h-1.59v3.64a1.47,1.47,0,0,0,.23.93.9.9,0,0,0,.73.26,1,1,0,0,0,.65-.21Zm-4.48,0h-4.55V47.8h1v8H169Zm-10.92,0a2,2,0,0,1-.92.19c-1.09,0-1.63-.61-1.63-1.83V51.15h-1.1v-.82h1.1V48.78l.95-.31v1.86h1.58v.82h-1.58v3.64a1.53,1.53,0,0,0,.22.93.89.89,0,0,0,.72.26,1,1,0,0,0,.66-.21Zm-4.54-6.27L151,56.67h-.91l-2.4-6.34h1.05L150.38,55a6,6,0,0,1,.22.86h0a3.94,3.94,0,0,1,.19-.84l1.72-4.67ZM142.16,48.7v3.69h1.13A2.44,2.44,0,0,0,145,51.9a1.72,1.72,0,0,0,.57-1.41c0-1.19-.7-1.78-2.11-1.78Zm0,4.59v3.36h-1V47.8h2.39a3.12,3.12,0,0,1,2.18.69,2.45,2.45,0,0,1,.78,1.94,2.61,2.61,0,0,1-.92,2.11,3.08,3.08,0,0,1-2.27.76Zm-11.73,2.08a3,3,0,0,0,1.82.61c.91,0,1.36-.3,1.36-.91a.83.83,0,0,0-.3-.64,3.94,3.94,0,0,0-1.16-.58A3.51,3.51,0,0,1,130.8,53a1.63,1.63,0,0,1,.25-2.29l.09-.06a2.91,2.91,0,0,1,1.71-.53,3.6,3.6,0,0,1,1.45.28v1a2.85,2.85,0,0,0-1.58-.45,1.46,1.46,0,0,0-.93.26.8.8,0,0,0-.34.65.87.87,0,0,0,.25.65,4.37,4.37,0,0,0,1.09.52,3.77,3.77,0,0,1,1.48.87,1.62,1.62,0,0,1-.29,2.28.18.18,0,0,1-.07,0,3,3,0,0,1-1.78.5,3.52,3.52,0,0,1-1.68-.39Zm-1.34-4.06a1.21,1.21,0,0,0-.76-.2,1.28,1.28,0,0,0-1.1.63,2.92,2.92,0,0,0-.43,1.68v3.23h-1V50.32h1v1.31h0a2.17,2.17,0,0,1,.66-1.05,1.49,1.49,0,0,1,1-.38,2.16,2.16,0,0,1,.62.09Zm-6.34,1.59a2,2,0,0,0-.43-1.39,1.46,1.46,0,0,0-1.18-.5,1.68,1.68,0,0,0-1.23.53,2.38,2.38,0,0,0-.65,1.37Zm1,.83h-4.48a2.41,2.41,0,0,0,.58,1.68,2,2,0,0,0,1.5.58,3,3,0,0,0,2-.72v.9a3.55,3.55,0,0,1-2.19.62,2.61,2.61,0,0,1-2.12-.87,3.56,3.56,0,0,1-.75-2.39,3.45,3.45,0,0,1,.83-2.38,2.63,2.63,0,0,1,2.06-.94,2.33,2.33,0,0,1,1.9.8,3.31,3.31,0,0,1,.7,2.2Zm-8.62,2.92V47.29h1v9.36Zm-3.58,0V47.29h1v9.36Zm-3.11-3.76A2.06,2.06,0,0,0,108,51.5a1.44,1.44,0,0,0-1.18-.49,1.63,1.63,0,0,0-1.23.52,2.34,2.34,0,0,0-.65,1.38Zm1,.84H105a2.41,2.41,0,0,0,.58,1.68A2,2,0,0,0,107,56a3.05,3.05,0,0,0,2-.72v.9a3.6,3.6,0,0,1-2.2.62,2.6,2.6,0,0,1-2.11-.87,3.61,3.61,0,0,1-.73-2.39,3.4,3.4,0,0,1,.83-2.38,2.64,2.64,0,0,1,2.06-.94,2.34,2.34,0,0,1,1.9.8,3.3,3.3,0,0,1,.68,2.22Zm-6.72-3.4-1.89,6.34h-1l-1.32-4.58a2.82,2.82,0,0,1-.1-.58h0a2.17,2.17,0,0,1-.13.56l-1.43,4.6h-1L94,50.33h1l1.32,4.78a2.72,2.72,0,0,1,.09.56h0a2.74,2.74,0,0,1,.11-.57L98,50.31h.88l1.33,4.81c0,.19.07.38.09.56h0a2.75,2.75,0,0,1,.1-.56l1.32-4.81Zm-11,2.56a2.06,2.06,0,0,0-.43-1.39A1.44,1.44,0,0,0,90.14,51a1.63,1.63,0,0,0-1.23.52,2.34,2.34,0,0,0-.65,1.38Zm1,.84H88.25a2.41,2.41,0,0,0,.58,1.68,2,2,0,0,0,1.5.58,3.07,3.07,0,0,0,2-.72v.9a3.6,3.6,0,0,1-2.2.62A2.6,2.6,0,0,1,88,55.92a3.61,3.61,0,0,1-.73-2.39,3.4,3.4,0,0,1,.83-2.38,2.64,2.64,0,0,1,2.06-.94,2.34,2.34,0,0,1,1.9.8,3.3,3.3,0,0,1,.68,2.22ZM85,53.53A4,4,0,0,1,84.37,56a2.27,2.27,0,0,1-2.57.73v-1a1.35,1.35,0,0,0,.85.23c.93,0,1.39-.8,1.39-2.4V47.8h1Z" transform="translate(-19.36 -2.94)" fill="#aa792b"/><path d="M177.41,56.88a2.47,2.47,0,0,1-2-.87,3.6,3.6,0,0,1-.72-2.37,3.83,3.83,0,0,1,.81-2.56,2.65,2.65,0,0,1,2.15-1,2.14,2.14,0,0,1,1.87.89V47.19h1.09V56.7h-1.09v-.9A2.45,2.45,0,0,1,177.41,56.88Zm.27-6.62a2.56,2.56,0,0,0-2,.92,3.74,3.74,0,0,0-.77,2.46,3.39,3.39,0,0,0,.7,2.27,2.31,2.31,0,0,0,1.84.82,2.26,2.26,0,0,0,2.11-1.2v0h.21v1.09h.78V47.37h-.78V51.3h-.15v0a2,2,0,0,0-1.9-1Zm-45.57,6.62a3.52,3.52,0,0,1-1.71-.39h-.05V55.22l.13.09a3,3,0,0,0,1.77.6c.86,0,1.28-.27,1.28-.84a.76.76,0,0,0-.27-.59,4.17,4.17,0,0,0-1.14-.56,3.55,3.55,0,0,1-1.38-.83,1.65,1.65,0,0,1,.36-2.43,2.87,2.87,0,0,1,1.75-.53,3.59,3.59,0,0,1,1.48.29h0V51.6l-.12-.07a2.69,2.69,0,0,0-1.58-.45,1.43,1.43,0,0,0-.88.24.72.72,0,0,0-.31.6.7.7,0,0,0,.22.58,3.9,3.9,0,0,0,1.06.53,3.79,3.79,0,0,1,1.55.9,1.72,1.72,0,0,1-.31,2.41l-.06,0a3.07,3.07,0,0,1-1.84.5Zm-1.58-.53a3.33,3.33,0,0,0,1.58.36,3,3,0,0,0,1.74-.48,1.45,1.45,0,0,0,.66-1.27,1.52,1.52,0,0,0-.32-1,3.92,3.92,0,0,0-1.45-.81,4.48,4.48,0,0,1-1.11-.57.89.89,0,0,1-.28-.7.87.87,0,0,1,.37-.71,1.53,1.53,0,0,1,1-.28,3,3,0,0,1,1.53.39v-.8a3.64,3.64,0,0,0-1.38-.26,2.74,2.74,0,0,0-1.66.49,1.47,1.47,0,0,0-.66,1.25,1.43,1.43,0,0,0,.33,1,3.43,3.43,0,0,0,1.36.78,4.18,4.18,0,0,1,1.17.6.9.9,0,0,1,.33.7c0,.66-.48,1-1.43,1a3.07,3.07,0,0,1-1.74-.53Zm-9.4.53A2.69,2.69,0,0,1,119,56a3.7,3.7,0,0,1-.79-2.45A3.53,3.53,0,0,1,119,51.1a2.69,2.69,0,0,1,2.11-1,2.47,2.47,0,0,1,2,.83,3.44,3.44,0,0,1,.69,2.27v.6h-4.48a2.31,2.31,0,0,0,.56,1.55,1.88,1.88,0,0,0,1.44.55,3,3,0,0,0,1.93-.7l.12-.1v1.12h0a3.67,3.67,0,0,1-2.23.63Zm0-6.62a2.6,2.6,0,0,0-2,.91,3.47,3.47,0,0,0-.83,2.36,3.59,3.59,0,0,0,.74,2.38,2.56,2.56,0,0,0,2,.84,3.62,3.62,0,0,0,2.12-.58v-.74a3.19,3.19,0,0,1-1.9.63,2.06,2.06,0,0,1-1.56-.6,2.54,2.54,0,0,1-.6-1.73v-.07h4.48v-.45A3.2,3.2,0,0,0,123,51a2.28,2.28,0,0,0-1.83-.78Zm-14.34,6.62a2.7,2.7,0,0,1-2.15-.9,3.68,3.68,0,0,1-.79-2.45,3.61,3.61,0,0,1,.86-2.46,2.73,2.73,0,0,1,2.11-1,2.45,2.45,0,0,1,2,.83,3.37,3.37,0,0,1,.67,2.27v.6H105a2.32,2.32,0,0,0,.57,1.55,1.88,1.88,0,0,0,1.44.55,3,3,0,0,0,1.92-.7l.13-.1v1.12h0a3.69,3.69,0,0,1-2.23.65Zm0-6.62a2.6,2.6,0,0,0-2,.91,3.46,3.46,0,0,0-.82,2.36,3.59,3.59,0,0,0,.74,2.38,2.58,2.58,0,0,0,2,.84,3.61,3.61,0,0,0,2.11-.58v-.74a3.1,3.1,0,0,1-1.9.63,2,2,0,0,1-1.55-.6,2.55,2.55,0,0,1-.61-1.73v-.07h4.49v-.45A3.25,3.25,0,0,0,108.7,51,2.3,2.3,0,0,0,106.86,50.26ZM90.12,56.88A2.69,2.69,0,0,1,88,56a3.69,3.69,0,0,1-.78-2.45A3.53,3.53,0,0,1,88,51.1a2.7,2.7,0,0,1,2.11-1,2.45,2.45,0,0,1,2,.83,3.44,3.44,0,0,1,.69,2.27v.6H88.33a2.32,2.32,0,0,0,.57,1.55,1.88,1.88,0,0,0,1.44.55,3,3,0,0,0,1.93-.7l.12-.1v1.12h0a3.66,3.66,0,0,1-2.24.63Zm0-6.62a2.6,2.6,0,0,0-2,.91,3.47,3.47,0,0,0-.83,2.36,3.54,3.54,0,0,0,.74,2.38,2.55,2.55,0,0,0,2,.84,3.57,3.57,0,0,0,2.11-.58v-.74a3.07,3.07,0,0,1-1.89.63,2.06,2.06,0,0,1-1.56-.6,2.49,2.49,0,0,1-.6-1.73v-.07h4.49v-.45A3.31,3.31,0,0,0,92,51a2.29,2.29,0,0,0-1.83-.78Zm-7.53,6.62a2.14,2.14,0,0,1-.86-.15h0V55.57l.12.08a1.43,1.43,0,0,0,.81.22c.88,0,1.31-.76,1.31-2.33V47.72H85.1v5.81A4.13,4.13,0,0,1,84.44,56a2.15,2.15,0,0,1-1.82.87Zm-.75-.27a2.11,2.11,0,0,0,.75.12,2,2,0,0,0,1.69-.84,3.94,3.94,0,0,0,.62-2.36V47.87h-.82v5.66c0,1.65-.49,2.48-1.47,2.48a1.64,1.64,0,0,1-.78-.17Zm90.68.26c-1.13,0-1.7-.64-1.7-1.91V51.23h-1.1v-1h1.1V48.72l1.1-.35v1.88h1.58v1H172v3.56a1.39,1.39,0,0,0,.21.88.84.84,0,0,0,.66.24,1,1,0,0,0,.61-.2l.12-.1v1.06h0a1.89,1.89,0,0,1-1,.2Zm-2.64-5.81H171V55c0,1.18.53,1.76,1.55,1.76a1.93,1.93,0,0,0,.85-.17v-.63a1.3,1.3,0,0,1-.58.14,1,1,0,0,1-.79-.29,1.62,1.62,0,0,1-.23-1v-3.7h1.58V50.4h-1.58V48.58l-.8.25v1.58h-1.11Zm-12.76,5.81c-1.14,0-1.71-.64-1.71-1.91V51.23h-1.1v-1h1.09V48.72l1.1-.35v1.88h1.59v1h-1.59v3.56a1.39,1.39,0,0,0,.21.88.85.85,0,0,0,.66.24,1,1,0,0,0,.61-.2l.13-.1v1.06h-.05a1.85,1.85,0,0,1-1,.2Zm-2.64-5.81h1.09V55c0,1.18.53,1.76,1.59,1.76a1.89,1.89,0,0,0,.84-.17v-.63a1.3,1.3,0,0,1-.58.14,1,1,0,0,1-.78-.29,1.49,1.49,0,0,1-.24-1v-3.7H158V50.4h-1.58V48.58l-.8.25v1.58h-1.09Zm14.59,5.66H164.4v-9h1.12v8h3.59Zm-4.55-.15H169v-.74h-3.59v-8h-.81Zm-13.48.15h-1v0l-2.44-6.44h1.22l1.65,4.7a5.34,5.34,0,0,1,.16.53,3.46,3.46,0,0,1,.14-.53l1.74-4.72h1.17l0,.11Zm-.91-.15H151l2.47-6.18h-.86L150.89,55a4,4,0,0,0-.19.83v.07h-.16v-.07a5.06,5.06,0,0,0-.22-.85l-1.61-4.6h-.89Zm-7.92.15h-1.13v-9h2.48a3.25,3.25,0,0,1,2.22.71,2.58,2.58,0,0,1,.81,2,2.76,2.76,0,0,1-.94,2.15,3.21,3.21,0,0,1-2.33.78h-1.12Zm-1-.15h.82V53.21h1.26a3,3,0,0,0,2.23-.74,2.58,2.58,0,0,0,.87-2,2.4,2.4,0,0,0-.75-1.89,3.1,3.1,0,0,0-2.11-.67h-2.32Zm-14.39.15h-1.11V50.25h1.11v1.06a2.13,2.13,0,0,1,.53-.76,1.52,1.52,0,0,1,1-.39,1.8,1.8,0,0,1,.65.09h0v1.21l-.12-.1a1.28,1.28,0,0,0-1.75.42,2.85,2.85,0,0,0-.42,1.63Zm-1-.15h.8V53.4a2.9,2.9,0,0,1,.46-1.72,1.37,1.37,0,0,1,1.15-.67,1.5,1.5,0,0,1,.69.14v-.79a1.88,1.88,0,0,0-.53-.06,1.37,1.37,0,0,0-.94.36,2.24,2.24,0,0,0-.64,1v0h-.16V50.4H126Zm-9.76.15h-1.11V47.19h1.11Zm-1-.15H116v-9.2h-.79Zm-2.64.15h-1.11V47.19h1.11Zm-1-.15h.79v-9.2h-.8Zm-10.73.15H99.79l-1.34-4.63a1.6,1.6,0,0,1,0-.21l-.06.2-1.45,4.64H95.83l-2-6.48H95l1.35,4.86a1.18,1.18,0,0,1,0,.2.9.9,0,0,1,.06-.22L98,50.24h1l1.35,4.87a1.55,1.55,0,0,1,0,.21l.06-.21,1.33-4.87h1.1l0,.1Zm-1-.15h.87l1.86-6.17h-.79l-1.3,4.76a2.27,2.27,0,0,0-.09.52v.08h-.2v-.07a3.08,3.08,0,0,0-.08-.53l-1.32-4.75H98.1l-1.46,4.75a3.12,3.12,0,0,0-.11.53v.07H96.3v-.07a3.08,3.08,0,0,0-.08-.53L94.9,50.41h-.84l1.87,6.18h.84l1.42-4.54a3.16,3.16,0,0,0,.13-.53v-.1h.17v.07a2.2,2.2,0,0,0,.1.56ZM177.68,56a1.76,1.76,0,0,1-1.46-.68,2.91,2.91,0,0,1-.53-1.8,3.09,3.09,0,0,1,.56-2,1.88,1.88,0,0,1,1.55-.73,1.84,1.84,0,0,1,1.36.57,1.93,1.93,0,0,1,.53,1.37v1a2.37,2.37,0,0,1-.57,1.61,1.87,1.87,0,0,1-1.44.68Zm.12-5a1.67,1.67,0,0,0-1.43.67,2.9,2.9,0,0,0-.52,1.85,2.63,2.63,0,0,0,.49,1.7,1.63,1.63,0,0,0,1.34.63,1.73,1.73,0,0,0,1.34-.6,2.2,2.2,0,0,0,.53-1.51v-.93a1.75,1.75,0,0,0-.53-1.26,1.67,1.67,0,0,0-1.23-.52Zm-55,1.89h-3.66v-.09a2.45,2.45,0,0,1,.67-1.41,1.77,1.77,0,0,1,1.29-.52,1.55,1.55,0,0,1,1.24.52,2.18,2.18,0,0,1,.44,1.44Zm-3.48-.15h3.34a1.92,1.92,0,0,0-.4-1.26,1.43,1.43,0,0,0-1.13-.47,1.6,1.6,0,0,0-1.18.49,2.26,2.26,0,0,0-.63,1.27Zm-10.82.15h-3.66v-.09a2.52,2.52,0,0,1,.67-1.41,1.78,1.78,0,0,1,1.29-.52,1.57,1.57,0,0,1,1.24.52,2.19,2.19,0,0,1,.45,1.44Zm-3.48-.15h3.32a1.93,1.93,0,0,0-.41-1.26,1.36,1.36,0,0,0-1.12-.47,1.59,1.59,0,0,0-1.18.49,2.2,2.2,0,0,0-.61,1.27Zm-13.22.15H88.18v-.09a2.52,2.52,0,0,1,.67-1.41,1.77,1.77,0,0,1,1.29-.52,1.54,1.54,0,0,1,1.24.52,2.14,2.14,0,0,1,.45,1.44Zm-3.46-.12H91.7a1.93,1.93,0,0,0-.41-1.26,1.39,1.39,0,0,0-1.12-.47,1.6,1.6,0,0,0-1.18.49A2.24,2.24,0,0,0,88.38,52.81Zm54.91-.34h-1.21V48.62h1.32c1.45,0,2.19.63,2.19,1.86A1.85,1.85,0,0,1,145,52,2.5,2.5,0,0,1,143.29,52.47Zm-1-.15h1a2.4,2.4,0,0,0,1.59-.48,1.66,1.66,0,0,0,.53-1.35c0-1.14-.67-1.7-2-1.7h-1.13Z" transform="translate(-19.36 -2.94)" fill="#aa792b"/><path d="M19.36,30.48A27.45,27.45,0,0,0,37.54,56.29c.05-.09,0-.16-.52-.35C30.73,53,26.08,45.27,26.08,38.34a15.81,15.81,0,0,1,31.61,0c0,.48,0,.95,0,1.44l15-18.56a27.45,27.45,0,0,0-53.32,9.26M57.18,44.74,40.34,24V57h6.42V41.79l10.47,12.8L67.41,41.91V57.06h6.45V24Z" transform="translate(-19.36 -2.94)" fill-rule="evenodd" fill="url(#linear-gradient)"/></svg>